<svg width="10" height="10" viewBox="0 0 10 10" fill="none" xmlns="http://www.w3.org/2000/svg">
<path d="M6.65852 5L9.14606 2.51246C9.45131 2.20721 9.45131 1.71229 9.14606 1.40678L8.59322 0.853942C8.28796 0.548686 7.79304 0.548686 7.48754 0.853942L5 3.34148L2.51246 0.853942C2.20721 0.548686 1.71229 0.548686 1.40678 0.853942L0.853942 1.40678C0.548686 1.71204 0.548686 2.20696 0.853942 2.51246L3.34148 5L0.853942 7.48754C0.548686 7.79279 0.548686 8.28771 0.853942 8.59322L1.40678 9.14606C1.71204 9.45131 2.20721 9.45131 2.51246 9.14606L5 6.65852L7.48754 9.14606C7.79279 9.45131 8.28796 9.45131 8.59322 9.14606L9.14606 8.59322C9.45131 8.28796 9.45131 7.79304 9.14606 7.48754L6.65852 5Z" fill="#F2F2F2"/>
</svg>